<?xml version="1.0" standalone="no"?>
<!DOCTYPE svg PUBLIC "-//W3C//DTD SVG 20010904//EN"
 "http://www.w3.org/TR/2001/REC-SVG-20010904/DTD/svg10.dtd">
<svg version="1.0" xmlns="http://www.w3.org/2000/svg"
 width="72.000000pt" height="72.000000pt" viewBox="0 0 72.000000 72.000000"
 preserveAspectRatio="xMidYMid meet">
<metadata>
Created by potrace 1.14, written by Peter Selinger 2001-2017
</metadata>
<g transform="translate(0.000000,72.000000) scale(0.100000,-0.100000)"
fill="#000000" stroke="none">
<path d="M236 561 c-113 -113 -126 -141 -69 -141 27 -1 26 -2 -26 -49 -59 -53
-66 -84 -18 -89 15 -2 27 -6 27 -9 0 -3 -22 -30 -50 -59 -27 -29 -50 -57 -50
-63 0 -22 43 -31 149 -31 109 0 111 0 111 -23 0 -29 18 -47 45 -47 27 0 45 18
45 47 0 23 2 23 114 23 91 0 118 3 130 16 20 20 12 35 -49 94 l-46 45 33 5
c52 8 48 34 -14 90 -51 48 -52 49 -25 50 57 0 44 28 -69 141 -60 60 -113 109
-119 109 -6 0 -59 -49 -119 -109z"/>
</g>
</svg>
